<?xml version="1.0" encoding="UTF-8"?>
<!DOCTYPE svg PUBLIC "-//W3C//DTD SVG 1.1//EN" "http://www.w3.org/Graphics/SVG/1.1/DTD/svg11.dtd">
<!-- Creator: CorelDRAW -->
<svg xmlns="http://www.w3.org/2000/svg" xml:space="preserve" width="261.821mm" height="94.5821mm" version="1.1" style="shape-rendering:geometricPrecision; text-rendering:geometricPrecision; image-rendering:optimizeQuality; fill-rule:evenodd; clip-rule:evenodd"
viewBox="0 0 4054.15 1464.55"
 xmlns:xlink="http://www.w3.org/1999/xlink"
 xmlns:xodm="http://www.corel.com/coreldraw/odm/2003">
 <defs>
  <style type="text/css">
   <![CDATA[
    .fil0 {fill:white}
   ]]>
  </style>
 </defs>
 <g id="Слой_x0020_1">
  <metadata id="CorelCorpID_0Corel-Layer"/>
  <g id="_1228797737392">
   <path class="fil0" d="M945.24 16.64l0 1158.33c0,12.59 3.8,16.39 16.39,16.39l502.67 0c12.59,0 16.39,-3.8 16.39,-16.39l0 -147.52 -371.54 0 0 -863.28 983.49 0 0 863.28 -366.07 0c-28.87,0 -16.39,61.87 -16.39,142.06 0,12.79 9.07,21.86 21.85,21.86l344.22 0c115.28,0 180.31,-74.74 180.31,-191.23l0 -808.65c0,-116.5 -65.03,-191.23 -180.31,-191.23l-1114.62 0c-12.59,0 -16.39,3.8 -16.39,16.39z"/>
   <path class="fil0" d="M1513.48 426.43l0 874.21c0,89.18 69.02,163.92 158.45,163.92l939.78 0 0 -147.52c0,-12.59 -3.8,-16.39 -16.39,-16.39l-917.92 0 0 -874.21 377 0 0 -163.91 -393.39 0c-75.76,0 -147.52,79.38 -147.52,163.91z"/>
   <path class="fil0" d="M639.27 612.2c-17.94,12.01 -23.64,15.1 -39.69,31.34 -15.89,16.07 -21.36,22.17 -39.96,36.53 -16.96,13.1 -24.04,23.88 -39.23,37.26l-240.92 218.04c-18.03,14.39 -23.97,19.41 -40.38,36.11 -16.08,16.36 -25.43,20.91 -41.09,35.4 -14.49,13.41 -23.54,25.64 -38.73,37.76 -18.38,14.66 -23.61,19.54 -40.32,36.17 -22.13,22.02 -103.61,87.64 -118.94,110.54 60.1,0 120.22,-0.17 180.31,0.01 35.91,0.11 55.53,6.64 75.5,-11.92l524.25 -475.63c18.1,-18.01 84.59,-82.15 99.61,-86.16 -6.66,-24.93 -27.3,-32.24 -45.03,-47.85l-524.53 -497.21c-16.35,-14.39 -30.81,-30.51 -46.39,-46.5 -22.62,-23.22 -22.75,-26.38 -66.8,-26.09 -63.81,0.43 -127.64,0.23 -191.47,0.23 7.64,28.62 52.19,59.14 74.88,78.11l319.84 303.04c28.41,25.02 50.9,54.12 79.31,79.14l119.22 110.26c16.72,12.9 29.71,25.22 40.55,41.4z"/>
   <polygon class="fil0" points="2289.34,426.43 2611.71,426.43 2611.71,262.51 2289.34,262.51 "/>
   <path class="fil0" d="M3868.38 869l49.18 0 0 -136.6c0.73,1.15 1.52,1.74 1.76,3.7 0.33,2.61 2.79,6.22 3.31,7.61l22.24 92.5 32.78 0c0.63,-28.41 22.3,-98.15 23.79,-101.87l3.52 134.66 49.17 0 0 -300.51c-62.8,0 -41.17,-6.8 -67.62,74.44 -8.49,26.06 -11.74,64.63 -30.73,78.54 -2.78,-33.44 -23.99,-86.3 -32.56,-120.42 -9.14,-36.38 -2.72,-32.56 -54.86,-32.56l0 300.51z"/>
   <path class="fil0" d="M3240.05 825.29l-21.86 0 0 -213.09c70.27,0 54.64,-16.37 54.64,191.23 0,16.8 -16.01,21.85 -32.78,21.85zm-71.03 43.71c180.99,0 152.99,27.19 152.99,-251.34 0,-64.76 -85.15,-49.17 -152.99,-49.17l0 300.51z"/>
   <path class="fil0" d="M3354.79 869l49.17 0 0 -256.8 54.64 0 0 87.42 -43.71 0c0,90.37 38.58,107.77 43.71,169.38l54.64 0 -49.18 -142.06c21.57,0 22.17,-1.72 38.25,-5.46l0 -147.52c-45.86,-10.68 -99.8,-5.46 -147.52,-5.46l0 300.51z"/>
   <path class="fil0" d="M3529.63 1338.89l49.18 0 0 -256.8 54.64 0 0 87.42 -43.71 0c0,90.37 38.58,107.77 43.71,169.38l54.64 0c-8.03,-16.75 -18.4,-47.21 -25.33,-67.56 -8.73,-25.66 -18.09,-49.79 -23.85,-74.5 21.57,0 22.17,-1.72 38.25,-5.46l0 -147.52c-45.86,-10.68 -99.8,-5.46 -147.52,-5.46l0 300.51z"/>
   <path class="fil0" d="M2879.43 1464.55c15.43,-1.28 21.86,0.13 21.86,-16.39l0 -1431.52c0,-15.39 -2.36,-10.12 -10.93,-16.39 -18.95,13.88 -11.02,20.09 -10.93,76.49l0 1387.81z"/>
   <path class="fil0" d="M3169.02 399.11l49.17 0 0 -114.74 14.24 24.01c9.84,23.34 33.5,73.39 34.94,90.73l54.64 0c-4.78,-20.53 -21.26,-51.35 -30.44,-73.38 -7.54,-18.09 -30.3,-62.05 -32.73,-76.48 -3.87,-22.94 50.17,-118.31 57.7,-150.65l-54.64 0c-5.04,21.62 -12.06,35.65 -20.28,56.21l-15.71 38.93c-0.72,1.5 -3.05,5.96 -3.71,7.22l-4.01 -102.36 -49.17 0 0 300.51z"/>
   <path class="fil0" d="M3709.93 1060.23l0 76.49c0,26.08 98.35,88.66 98.35,114.74l0 43.71 -49.17 0 0 -54.64 -49.17 0c0,118.07 -20.93,98.35 125.67,98.35 31.92,0 21.85,-49.65 21.85,-103.81 0,-26.08 -98.35,-88.66 -98.35,-114.74l0 -38.25 49.17 0 0 49.17 49.17 0c0,-111.57 20.02,-92.88 -125.67,-92.88 -12.79,0 -21.85,9.06 -21.85,21.85z"/>
   <path class="fil0" d="M3169.02 1060.23l0 256.8c0,33.97 63.55,21.86 131.13,21.86 30.49,0 21.85,-59.63 21.85,-98.35l-49.17 0 0 54.64 -54.64 0 0 -213.09 54.64 0 0 54.64 49.17 0c0,-118.98 17.43,-98.35 -131.13,-98.35 -12.79,0 -21.85,9.06 -21.85,21.85z"/>
   <path class="fil0" d="M3759.11 661.37l4.37 12.02c0.83,3.14 2.26,10.34 2.86,13.54l14.63 89.19 -38.25 0c0,-42.43 13.22,-76.67 16.39,-114.74zm-81.96 207.63l49.17 0c0.55,-24.71 5.46,-21.71 5.46,-49.18l54.64 0c1.75,21.07 5.46,21.52 5.46,49.18l49.18 0c0,-35 -44.29,-256.09 -54.64,-300.51 -64.86,0 -46.03,-23.75 -76.04,126.12 -5.86,29.25 -10.71,59.07 -16.34,87.48 -5.28,26.65 -14.76,61.14 -16.9,86.91z"/>
   <path class="fil0" d="M3409.42 191.48c7.51,11.85 17.49,96.01 21.85,114.74l-38.25 0c0,-42.43 13.22,-76.67 16.39,-114.74zm-81.96 207.63l49.17 0c0.55,-24.71 5.46,-21.71 5.46,-49.18l54.64 0c1.75,21.07 5.46,21.52 5.46,49.18l49.17 0c0,-35 -44.29,-256.09 -54.64,-300.51 -64.86,0 -46.03,-23.75 -76.04,126.12l-33.24 174.39z"/>
   <path class="fil0" d="M3420.35 1131.26l4.37 12.02c0.83,3.14 2.26,10.34 2.86,13.54l14.63 89.19 -38.25 0c0,-42.43 13.22,-76.67 16.39,-114.74zm-81.96 207.63l49.17 0c0.55,-24.71 5.46,-21.71 5.46,-49.18l54.64 0c1.75,21.07 5.46,21.52 5.46,49.18l49.18 0c0,-35 -44.29,-256.09 -54.64,-300.51 -56.72,0 -50.43,-8.84 -58.87,39.48 -5.4,30.9 -11.48,58.22 -17.17,86.64l-33.24 174.39z"/>
   <polygon class="fil0" points="3535.09,869 3660.76,869 3660.76,825.29 3584.27,825.29 3584.27,737.87 3649.83,737.87 3649.83,694.15 3584.27,694.15 3584.27,612.2 3660.76,612.2 3660.76,568.49 3535.09,568.49 "/>
   <path class="fil0" d="M3507.77 142.31l76.49 0c-1.35,16.19 -13.86,45.4 -20.26,61.69 -17.78,45.23 -61.69,151.36 -61.69,195.11l142.06 0 0 -43.71 -81.96 0c1.6,-19.23 55.41,-155.23 66.26,-185.07 8.07,-22.18 15.7,-39.48 15.7,-71.73l-136.6 0 0 43.71z"/>
  </g>
 </g>
</svg>
